<svg preserveAspectRatio="none" width="100%" height="100%" overflow="visible" style="display: block;" viewBox="0 0 72.59 72.59" fill="none" xmlns="http://www.w3.org/2000/svg">
<g id="fluent-mdl2:party-leader" clip-path="url(#clip0_0_9)">
<path id="Vector" d="M41.399 33.5303C42.2969 33.8848 43.1712 34.2747 44.0219 34.7C44.8725 35.1253 45.6996 35.6097 46.503 36.1532C45.9831 36.7203 45.5105 37.3111 45.0852 37.9254C44.6599 38.5398 44.27 39.2014 43.9155 39.9103C42.0961 38.7288 40.1584 37.8309 38.1027 37.2166C36.0469 36.6022 33.932 36.295 31.7581 36.295C29.6787 36.295 27.6702 36.5667 25.7326 37.1102C23.795 37.6537 21.9873 38.4098 20.3096 39.3787C18.6319 40.3475 17.1078 41.5289 15.7373 42.9231C14.3668 44.3172 13.1853 45.8532 12.1929 47.5309C11.2004 49.2086 10.4324 51.0162 9.88897 52.9538C9.34549 54.8915 9.07375 56.9 9.07375 58.9794H4.53687C4.53687 56.1438 4.95039 53.4146 5.77743 50.7917C6.60446 48.1689 7.79775 45.7468 9.3573 43.5256C10.9169 41.3045 12.76 39.3314 14.8866 37.6064C17.0133 35.8815 19.4235 34.5228 22.1173 33.5303C19.4471 31.7818 17.3677 29.5842 15.8791 26.9377C14.3904 24.2912 13.6343 21.3611 13.6106 18.1475C13.6106 15.6428 14.0832 13.2916 15.0284 11.0941C15.9736 8.89653 17.2614 6.97072 18.8918 5.31665C20.5223 3.66258 22.4481 2.36296 24.6693 1.41777C26.8904 0.472591 29.2534 0 31.7581 0C34.2629 0 36.614 0.472591 38.8115 1.41777C41.0091 2.36296 42.9349 3.65077 44.589 5.28121C46.243 6.91165 47.5427 8.83745 48.4878 11.0586C49.433 13.2798 49.9056 15.6428 49.9056 18.1475C49.9056 19.707 49.7166 21.2312 49.3385 22.7198C48.9604 24.2085 48.3933 25.6144 47.6372 26.9377C46.881 28.2609 45.9949 29.4779 44.9789 30.5885C43.9628 31.699 42.7695 32.6797 41.399 33.5303ZM18.1475 18.1475C18.1475 20.0379 18.5019 21.7983 19.2108 23.4287C19.9197 25.0591 20.8885 26.5005 22.1173 27.7529C23.346 29.0053 24.7874 29.9859 26.4415 30.6948C28.0955 31.4037 29.8678 31.7581 31.7581 31.7581C33.6249 31.7581 35.3853 31.4037 37.0393 30.6948C38.6934 29.9859 40.1348 29.0171 41.3635 27.7884C42.5923 26.5596 43.5729 25.1182 44.3054 23.4641C45.0379 21.8101 45.3924 20.0379 45.3687 18.1475C45.3687 16.2808 45.0143 14.5204 44.3054 12.8663C43.5965 11.2122 42.6277 9.77082 41.399 8.54208C40.1702 7.31335 38.717 6.33272 37.0393 5.6002C35.3616 4.86769 33.6012 4.51325 31.7581 4.53687C29.8678 4.53687 28.1074 4.89132 26.4769 5.6002C24.8465 6.30909 23.4051 7.2779 22.1527 8.50664C20.9003 9.73538 19.9197 11.1886 19.2108 12.8663C18.5019 14.544 18.1475 16.3044 18.1475 18.1475ZM70.3216 47.6372C70.3216 48.8659 70.1325 50.0592 69.7544 51.2171C69.3764 52.3749 68.8093 53.4501 68.0531 54.4425V72.59L58.9794 68.0531L49.9056 72.59V54.4425C49.1731 53.4501 48.6178 52.3749 48.2397 51.2171C47.8617 50.0592 47.6608 48.8659 47.6372 47.6372C47.6372 46.0776 47.9326 44.6126 48.5233 43.2421C49.114 41.8716 49.9174 40.6783 50.9335 39.6622C51.9496 38.6461 53.1547 37.8309 54.5488 37.2166C55.943 36.6022 57.4198 36.295 58.9794 36.295C60.5389 36.295 62.004 36.5904 63.3745 37.1811C64.745 37.7718 65.9383 38.5871 66.9543 39.6268C67.9704 40.6665 68.7856 41.8716 69.4 43.2421C70.0144 44.6126 70.3216 46.0776 70.3216 47.6372ZM58.9794 40.8319C58.0342 40.8319 57.1481 41.0091 56.321 41.3635C55.494 41.718 54.7733 42.2024 54.1589 42.8168C53.5446 43.4311 53.0602 44.1518 52.7057 44.9789C52.3513 45.8059 52.1741 46.692 52.1741 47.6372C52.1741 48.5824 52.3513 49.4685 52.7057 50.2955C53.0602 51.1225 53.5446 51.8432 54.1589 52.4576C54.7733 53.072 55.494 53.5564 56.321 53.9108C57.1481 54.2653 58.0342 54.4425 58.9794 54.4425C59.9246 54.4425 60.8107 54.2653 61.6377 53.9108C62.4647 53.5564 63.1854 53.072 63.7998 52.4576C64.4142 51.8432 64.8986 51.1225 65.253 50.2955C65.6075 49.4685 65.7847 48.5824 65.7847 47.6372C65.7847 46.692 65.6075 45.8059 65.253 44.9789C64.8986 44.1518 64.4142 43.4311 63.7998 42.8168C63.1854 42.2024 62.4647 41.718 61.6377 41.3635C60.8107 41.0091 59.9246 40.8319 58.9794 40.8319ZM63.5162 65.253V58.0224C62.0985 58.6604 60.5862 58.9794 58.9794 58.9794C57.3726 58.9794 55.8603 58.6604 54.4425 58.0224V65.253C55.1986 64.8749 55.9548 64.5087 56.7109 64.1542C57.4671 63.7998 58.2232 63.4099 58.9794 62.9846C59.7355 63.3863 60.4917 63.7644 61.2478 64.1188C62.004 64.4732 62.7601 64.8513 63.5162 65.253Z" fill="var(--fill-0, #0698C0)"/>
</g>
<defs>
<clipPath id="clip0_0_9">
<rect width="72.59" height="72.59" fill="white"/>
</clipPath>
</defs>
</svg>
